<svg width="407" height="397" viewBox="0 0 407 397" fill="none" xmlns="http://www.w3.org/2000/svg">
    <path
        d="M406.968 199.202C406.178 162.668 395.576 127.02 376.271 95.9975C356.967 64.9753 329.674 39.7226 297.254 22.889C264.835 6.05547 228.484 -1.73848 192.017 0.324873C155.549 2.38823 120.309 14.2329 89.9932 34.616C59.6775 54.9992 35.4038 83.1695 19.7189 116.171C4.03405 149.173 -2.48384 185.79 0.849088 222.181C4.18202 258.571 17.2429 293.393 38.6614 322.994C60.08 352.594 89.0666 375.882 122.58 390.414C132.479 375.528 140.055 359.222 145.049 342.056C149.13 331.67 153.561 321.455 158.153 311.573C169.233 314.894 181.007 315.142 192.217 312.292C203.427 309.441 213.653 303.599 221.804 295.388L222.487 294.705C212.477 290.98 201.687 289.852 191.123 291.424C180.559 292.996 170.565 297.218 162.072 303.697C167.689 291.944 173.819 280.542 180.11 269.474C190.987 273.323 202.706 274.136 214.01 271.826C225.314 269.517 235.776 264.171 244.273 256.363L244.956 255.68C235.286 251.587 224.751 249.958 214.297 250.939C203.843 251.92 193.795 255.48 185.053 261.3C191.345 250.914 197.816 240.7 204.629 231.159C215.885 234.117 227.736 233.935 238.896 230.633C250.056 227.332 260.1 221.036 267.938 212.429L268.45 211.746C259.154 208.713 249.277 207.904 239.612 209.383C229.947 210.862 220.763 214.587 212.798 220.261C213.311 219.578 213.994 218.733 214.497 218.049C218.577 212.771 222.838 207.493 227.08 202.385C240.033 198.145 251.584 190.449 260.491 180.128C269.398 169.807 275.322 157.252 277.626 143.813L277.797 142.787H277.626C264.139 146.297 251.903 153.516 242.307 163.627C232.711 173.738 226.137 186.336 223.332 199.994C219.251 204.93 215.162 209.885 211.252 214.974C214.553 206.341 215.899 197.084 215.194 187.868C214.488 178.653 211.749 169.708 207.172 161.679L206.66 162.363C199.716 171.851 195.532 183.076 194.571 194.796C193.61 206.516 195.909 218.274 201.213 228.767C194.742 237.966 188.451 247.327 182.492 257.2C184.411 247.275 183.913 237.033 181.039 227.342C178.165 217.651 173 208.794 165.982 201.522L165.64 202.376C161.298 213.199 160.018 225.008 161.94 236.51C163.861 248.012 168.91 258.763 176.533 267.585C170.574 277.971 164.957 288.698 159.51 299.767C161.165 289.429 160.33 278.846 157.073 268.896C153.817 258.946 148.235 249.918 140.789 242.561L140.448 243.415C136.565 254.76 135.844 266.948 138.363 278.671C140.883 290.395 146.547 301.21 154.747 309.955C151.152 317.616 147.773 325.241 144.537 333.28C143.647 332.462 142.606 331.827 141.472 331.409C135.666 329.721 130.112 327.26 124.962 324.09C120.704 321.562 116.183 319.506 111.48 317.958C93.1006 311.996 95.8239 303.148 86.315 285.263C83.2207 281.581 79.9325 278.066 76.4645 274.734C73.247 272.646 70.6122 269.775 68.807 266.389C66.7102 262.162 65.3832 257.595 64.8884 252.902C64.832 250.306 63.9644 247.793 62.4072 245.715C60.85 243.638 58.6815 242.101 56.2063 241.32C29.1445 231.96 41.2328 196.882 42.2484 192.279C41.8325 186.325 40.5111 180.47 38.3298 174.915C38.1019 174.192 37.9306 173.453 37.8175 172.703C37.0955 169.069 37.2271 165.316 38.2019 161.742C39.1767 158.167 40.968 154.867 43.4348 152.103C46.6703 148.866 57.9049 143.588 60.2867 140.522C62.6684 137.455 64.3671 134.047 66.7578 131.161C74.3192 123.615 83.055 117.347 92.6243 112.602C100.453 108.349 101.819 97.4506 104.874 94.0427C109.979 88.252 117.808 88.252 123.596 83.1446C126.49 80.5909 130.786 79.2242 133.482 76.5086C147.076 64.0533 164.208 56.1401 182.501 53.8671C195.186 52.8324 207.954 53.9852 220.249 57.2751C222.029 57.5741 223.79 57.9733 225.525 58.471C253.602 59.496 287.306 65.2778 299.556 77.201C305.621 83.031 310.126 90.2903 312.66 98.3138C314.65 104.527 317.394 110.473 320.83 116.019L328.317 128.275C333.087 136.003 334.615 145.304 332.568 154.153C331.188 158.457 331.07 163.065 332.226 167.434C336.175 173.398 340.802 178.884 346.013 183.781C348.084 185.831 350.365 187.658 352.817 189.23C358.579 192.669 364.147 196.421 369.498 200.47C369.674 202.111 369.402 203.769 368.712 205.268C368.023 206.768 366.94 208.052 365.58 208.985C360.816 213.239 351.622 219.884 351.622 219.884C351.954 221.765 352.525 223.596 353.32 225.333C354.678 227.715 357.742 231.465 356.727 234.693C355.711 237.921 349.069 240.655 350.939 244.224C352.808 247.974 357.572 248.99 356.214 252.398C354.857 255.635 348.215 261.39 348.898 263.809C349.582 266.227 355.028 288.986 342.427 292.924C326.833 296.01 311.007 297.775 295.116 298.202C292.553 298.35 290.069 299.146 287.896 300.516C285.724 301.886 283.935 303.785 282.695 306.034C280.283 310.534 278.726 315.443 278.103 320.511C273.505 338.635 267.415 356.347 259.894 373.464C259.894 373.464 259.381 374.489 258.698 376.018C257.048 379.383 256.01 383.016 255.634 386.745C256.704 389.485 258.326 391.976 260.397 394.065C261.488 395.314 262.917 396.22 264.513 396.674C266.108 397.127 267.8 397.108 269.385 396.618C310.174 382.397 345.434 355.655 370.139 320.206C394.844 284.758 407.733 242.41 406.968 199.202Z"
        fill="white" />
</svg>