<svg viewBox="0 0 1197 429" fill="none" xmlns="http://www.w3.org/2000/svg">
    <path
        d="M428.897 214.502C428.897 96.0344 332.886 0 214.447 0C96.0074 0 0 96.0344 0 214.502C0 332.97 96.0114 429 214.447 429C332.882 429 428.897 332.966 428.897 214.502Z"
        fill="white" />
    <path
        d="M359.172 203.795C359.172 203.284 349.891 197.354 345.003 194.257C342.89 192.932 340.927 191.381 339.15 189.631C335.495 186.015 329.402 179.698 327.415 175.811C326.143 173.324 326.665 168.85 327.655 164.58C329.37 157.088 328.072 149.221 324.04 142.678L317.688 132.329C314.762 127.61 312.411 122.557 310.685 117.279C308.493 110.495 304.677 104.349 299.569 99.3757C289.235 89.2906 260.627 84.3258 236.862 83.5316C235.393 83.0923 233.9 82.7378 232.39 82.47C221.804 80.6661 210.524 77.7567 200.398 79.6484C185.359 82.4421 170.157 87.1594 158.814 98.805C156.524 101.152 152.953 102.261 150.487 104.484C145.603 108.894 139.024 108.894 134.682 113.795C132.141 116.649 130.968 125.975 124.308 129.539C113.292 135.446 105.156 141.951 102.467 145.276C100.448 147.77 98.8761 150.691 96.917 153.258C94.922 155.876 85.4218 160.306 82.6608 163.075C79.8997 165.845 76.2049 172.59 77.8728 180.56C78.0284 181.286 78.1561 181.885 78.2718 182.372C79.357 186.422 82.3096 193.766 81.6274 197.138C80.8294 201.129 70.587 230.826 93.4816 238.74C98.2696 240.392 100.265 243.605 100.791 248.494C101.262 252.454 102.393 256.307 104.139 259.892C106.222 264.282 110.327 266.677 110.663 266.972C112.043 268.169 118.467 274.898 118.998 275.876C127.121 290.894 124.839 298.397 140.388 303.501C144.384 304.822 148.22 306.582 151.827 308.749C156.225 311.391 160.933 313.477 165.844 314.959C165.988 314.999 166.203 315.075 166.459 315.167C169.914 306.818 173.417 298.9 176.909 291.445C148.915 262.738 156.276 230.574 158.954 221.958C159.032 221.701 159.173 221.468 159.365 221.281C159.557 221.093 159.794 220.957 160.052 220.885C160.311 220.813 160.583 220.808 160.845 220.869C161.106 220.93 161.347 221.056 161.547 221.236C167.42 226.384 185.28 244.95 183.185 278.474C189.361 266.134 195.366 255.286 200.853 246.019C180.655 211.781 195.705 181.765 200.454 173.855C200.59 173.618 200.784 173.42 201.019 173.28C201.253 173.14 201.52 173.062 201.793 173.055C202.066 173.047 202.336 173.11 202.578 173.236C202.82 173.363 203.026 173.55 203.175 173.779C207.292 179.893 218.484 199.94 211.554 228.818C216.577 221.14 220.655 215.453 223.32 211.885C230.55 164.145 266.596 148.464 276.068 145.16C276.322 145.067 276.595 145.041 276.862 145.083C277.129 145.125 277.381 145.234 277.594 145.4C277.808 145.565 277.976 145.783 278.082 146.031C278.188 146.28 278.23 146.551 278.203 146.82C277.329 156.69 271.244 194.712 229.437 214.231C224.41 220.852 219.57 227.821 214.941 234.984C230.929 222.489 253.329 216.626 271.95 221.124C272.213 221.184 272.457 221.308 272.66 221.486C272.862 221.663 273.017 221.889 273.111 222.142C273.204 222.395 273.233 222.667 273.195 222.934C273.157 223.201 273.053 223.454 272.892 223.67C267.541 230.758 246.255 254.66 206.151 249.184C199.368 260.61 193.164 272.192 187.65 283.263C204.97 270.161 230.271 265.14 249.894 271.737C250.155 271.821 250.392 271.969 250.581 272.168C250.771 272.366 250.907 272.61 250.979 272.875C251.05 273.14 251.053 273.419 250.988 273.686C250.923 273.953 250.793 274.2 250.608 274.403C244.511 280.964 221.038 302.507 182.443 293.959C178.824 301.605 173.429 314.181 170.796 320.395C169.89 322.534 169.056 324.693 168.314 326.892C166.606 331.953 164.304 338.266 161.563 344.588C161.176 345.49 160.979 346.461 160.984 347.442C160.988 348.424 161.194 349.393 161.589 350.291C161.983 351.19 162.558 351.997 163.278 352.664C163.998 353.33 164.847 353.842 165.772 354.166C196.228 365.042 229.294 366.268 260.471 357.678C261.501 357.386 262.452 356.865 263.253 356.154C264.053 355.443 264.683 354.56 265.096 353.572C265.746 352.031 266.388 350.571 266.388 350.571C266.388 350.571 279.867 319.277 281.85 305.64C282.415 301.342 283.75 297.181 285.792 293.356C286.843 291.445 288.363 289.833 290.21 288.673C292.056 287.512 294.168 286.841 296.345 286.723C306.604 286.18 328.449 284.748 336.397 282.229C346.958 278.873 342.382 259.629 341.811 257.557C341.241 255.486 346.895 250.661 348.056 247.847C349.217 245.034 345.199 244.068 343.559 240.975C341.919 237.882 347.633 235.667 348.447 232.861C349.261 230.056 346.587 226.975 345.506 224.903C344.784 223.427 344.279 221.854 344.006 220.234C344.006 220.234 351.734 214.575 355.84 211.003C359.946 207.431 359.184 204.49 359.172 203.795Z"
        fill="black" />
    <path
        d="M643.152 286.302V200.748L612.214 263.043H594.015L563.077 200.748V286.302H529.912V142.699H565.906L603.116 217.737L640.523 142.699H676.313V286.302H643.152Z"
        fill="white" />
    <path
        d="M824.937 257.176V286.302H724.033V142.699H823.117V171.821H757.194V199.734H813.812V226.633H757.194V257.176H824.937Z"
        fill="white" />
    <path d="M974.773 171.821H931.098V286.302H897.933V171.821H854.055V142.699H974.773V171.821Z" fill="white" />
    <path d="M1044.33 142.699H1011.17V286.302H1044.33V142.699Z" fill="white" />
    <path
        d="M1178.19 184.97C1177.79 184.299 1176.37 183.255 1173.95 181.837C1171 180.158 1167.96 178.639 1164.85 177.287C1160.98 175.585 1156.99 174.166 1152.92 173.041C1148.71 171.84 1144.35 171.228 1139.97 171.221C1134.31 171.221 1129.93 172.192 1126.83 174.134C1123.73 176.077 1122.18 179.055 1122.18 183.07C1122.18 186.282 1123.36 188.825 1125.72 190.701C1128.08 192.577 1131.48 194.218 1135.93 195.626C1140.38 197.031 1145.84 198.67 1152.31 200.543C1161.48 202.953 1169.43 205.867 1176.17 209.283C1182.92 212.699 1188.07 217.089 1191.64 222.453C1195.21 227.801 1197 234.893 1197 243.729C1197 251.767 1195.52 258.563 1192.55 264.119C1189.71 269.53 1185.58 274.153 1180.52 277.576C1175.25 281.081 1169.39 283.597 1163.23 285.003C1156.67 286.554 1149.95 287.33 1143.21 287.314C1135.98 287.294 1128.76 286.583 1121.66 285.191C1114.45 283.814 1107.37 281.784 1100.52 279.125C1093.99 276.604 1087.75 273.383 1081.92 269.518L1096.48 240.596C1097.01 241.269 1098.76 242.516 1101.73 244.335C1105.28 246.459 1108.96 248.351 1112.76 249.999C1117.5 252.086 1122.4 253.81 1127.41 255.155C1132.75 256.634 1138.26 257.383 1143.79 257.382C1149.72 257.382 1154.14 256.457 1157.04 254.608C1159.94 252.759 1161.39 250.185 1161.39 246.886C1161.39 243.265 1159.87 240.448 1156.84 238.437C1153.8 236.425 1149.69 234.616 1144.5 233.009C1139.31 231.413 1133.34 229.602 1126.6 227.577C1117.83 224.895 1110.58 221.878 1104.87 218.526C1099.15 215.173 1094.91 211.084 1092.13 206.258C1089.37 201.429 1087.99 195.393 1087.99 188.151C1087.99 178.094 1090.38 169.613 1095.17 162.708C1099.96 155.804 1106.39 150.575 1114.47 147.02C1122.58 143.46 1131.42 141.68 1140.98 141.68C1147.57 141.661 1154.12 142.476 1160.5 144.107C1166.52 145.641 1172.4 147.672 1178.09 150.177C1183.56 152.603 1188.44 155.03 1192.75 157.456L1178.19 184.97Z"
        fill="white" />
</svg>