<svg width="433" height="433" viewBox="-58 -70 550 550" fill="none"
    xmlns="http://www.w3.org/2000/svg">
    <path
        d="M82.17 241.34C81.8742 241.339 81.5785 241.352 81.2841 241.38C78.6217 241.631 77.876 242.536 77.876 245.329C77.876 295.041 77.8877 344.768 77.9111 394.51C77.9111 400.611 73.467 406.246 66.3405 406.171C48.0088 405.97 29.6721 406.025 11.3403 406.141C4.11876 406.186 0.0350326 401.937 0.030028 394.885C0.0100098 344.403 0.0250235 293.922 0.0750691 243.442C0.0750691 236.326 3.14787 232.908 10.6447 232.843C25.7135 232.712 40.7822 232.843 55.8509 232.777C59.0038 232.831 62.0788 231.797 64.5589 229.85C67.5316 227.508 68.2673 224.21 68.3023 220.842C68.4324 208.701 68.4324 196.561 68.3023 184.423C68.3189 182.905 68.0295 181.399 67.4515 179.995C66.8735 178.59 66.0186 177.317 64.9379 176.25C63.8572 175.184 62.5728 174.346 61.1612 173.786C59.7496 173.226 58.2398 172.957 56.7217 172.993C42.9141 173.163 29.0965 173.073 15.2839 173.023C12.6305 173.051 9.97929 172.862 7.35671 172.457C4.25889 171.957 1.85169 170.25 1.01593 166.992C0.560512 165.176 0.0600554 163.304 0.0550508 161.457C-0.00500393 138.016 -0.00500393 114.575 0.0550508 91.1333C0.0550508 87.8503 0.355325 84.3971 3.293 82.1901C4.6042 81.1892 6.29574 80.2984 7.8872 80.1883C13.3622 79.7979 18.8622 79.6878 24.3572 79.6228C31.6389 79.5377 38.9205 79.6578 46.2072 79.5777C50.2108 79.5327 54.1844 79.3775 58.1581 79.0773C61.3059 78.827 63.7231 76.8953 66.1253 75.0386C69.053 72.7765 71.9606 70.4944 74.9133 68.2674C78.1713 65.8102 78.8669 62.317 78.8719 58.5736C78.892 41.9984 78.892 25.4233 78.8719 8.8482C78.8719 4.19896 82.3051 0.765829 87.0194 0.760825H135.739C231.826 0.600678 334.84 0.190304 431.008 0.0351626C431.266 0.0345043 431.522 0.0847618 431.76 0.183056C431.999 0.281351 432.216 0.42575 432.399 0.607985C432.581 0.79022 432.726 1.00671 432.825 1.24505C432.924 1.48339 432.975 1.7389 432.975 1.99695V6.91144C432.974 7.43133 432.767 7.92955 432.399 8.29717C432.031 8.66479 431.533 8.8719 431.013 8.87323H377.259C375.238 8.85711 373.234 9.24753 371.367 10.0213C369.499 10.795 367.807 11.9363 366.389 13.3773C350.249 29.5271 334.135 45.7268 317.885 61.7915C313.056 66.5709 307.876 70.9999 302.741 75.459C299.313 78.4367 295.059 79.5577 290.635 79.5627C239.061 79.6127 187.491 79.6311 135.924 79.6178C120.72 79.6178 105.516 79.848 90.3124 80.1482C86.1086 80.2333 81.8046 80.7738 79.5676 85.2179C78.962 86.419 78.7268 87.8152 78.3965 89.1364C78.3388 89.6352 78.3388 90.139 78.3965 90.6378L77.896 144.537C77.841 149.542 73.0917 153.926 67.7368 153.931C51.0766 153.931 34.4164 153.931 17.7562 153.961C16.2781 153.975 14.8056 154.142 13.3622 154.461C10.5947 155.057 8.99821 156.778 9.08329 158.855C9.17734 160.176 9.74415 161.418 10.6799 162.355C11.6155 163.291 12.8574 163.859 14.1779 163.955C14.9236 164.025 15.6793 163.955 16.44 163.955L394.975 163.875C400.52 163.805 405.545 168.924 405.485 174.274C405.29 193.362 405.41 212.449 405.41 231.536C405.41 237.347 401.406 241.31 395.596 241.31L82.17 241.34Z"
        fill="white" />
</svg>
    