<svg width="609" height="609" viewBox="-37 0 609 609" fill="none" xmlns="http://www.w3.org/2000/svg">
    <g clip-path="url(#clip0_4912_1988)">
        <path
            d="M166.226 58.3873L262.861 2.58136C265.613 0.993713 269.027 0.993713 271.778 2.58136L526.464 149.624C529.216 151.212 530.91 154.149 530.936 157.325L531.281 258.458C531.281 261.66 529.587 264.623 526.808 266.211L430.305 321.938C424.378 325.378 416.943 321.091 416.916 314.238L416.599 223.477C416.599 220.301 414.879 217.364 412.126 215.776L166.226 73.8405C160.272 70.4007 160.272 61.8273 166.226 58.3873Z"
            fill="#B4F9BA" />
        <path
            d="M103.797 516.516L7.18868 460.736C4.41029 459.148 2.7168 456.211 2.7168 453.01V158.923C2.7168 155.748 4.41029 152.811 7.16223 151.197L94.5888 100.312C97.3675 98.698 100.78 98.698 103.533 100.312L200.036 156.038C205.962 159.478 205.99 168.025 200.062 171.492L121.632 217.137C118.88 218.724 117.186 221.662 117.186 224.863V508.816C117.186 515.695 109.751 519.982 103.797 516.542V516.516Z"
            fill="#B4F9BA" />
        <path
            d="M531.283 341.396V452.955C531.283 456.156 529.589 459.093 526.811 460.681L272.125 607.724C269.373 609.312 265.986 609.312 263.233 607.724L175.464 557.448C172.685 555.861 170.965 552.897 170.965 549.696V438.269C170.965 431.415 178.373 427.129 184.328 430.516L263.075 475.631C265.827 477.219 269.214 477.193 271.966 475.631L517.867 333.642C523.821 330.202 531.257 334.489 531.257 341.369L531.283 341.396Z"
            fill="#B4F9BA" />
    </g>
    <defs>
        <clipPath id="clip0_4912_1988">
            <rect width="534" height="608.947" fill="white" />
        </clipPath>
    </defs>
</svg>