<svg xmlns="http://www.w3.org/2000/svg" width="32" height="32" viewBox="0 0 32 32" fill="none">
    <circle cx="16" cy="16" r="16" fill="#00D2FF" />
    <path
        d="M26.7402 15.2173C26.7402 15.1792 26.0509 14.7367 25.6879 14.5057C25.531 14.4069 25.3852 14.2912 25.2532 14.1606C24.9818 13.8909 24.5293 13.4196 24.3817 13.1296C24.2872 12.9442 24.326 12.6104 24.3995 12.2919C24.5269 11.7329 24.4305 11.1461 24.131 10.658L23.6593 9.88597C23.442 9.5339 23.2674 9.15699 23.1393 8.76326C22.9764 8.25716 22.693 7.79868 22.3137 7.42769C21.5462 6.67534 19.4216 6.30498 17.6567 6.24573C17.5476 6.21296 17.4367 6.18652 17.3245 6.16654C16.5384 6.03197 15.7007 5.81493 14.9486 5.95605C13.8318 6.16446 12.7028 6.51636 11.8603 7.38511C11.6902 7.56017 11.425 7.64294 11.2419 7.80877C10.8792 8.13775 10.3906 8.13775 10.0682 8.50335C9.87941 8.71622 9.79229 9.412 9.29773 9.67786C8.47958 10.1185 7.87538 10.6038 7.67566 10.8518C7.52572 11.0379 7.40897 11.2558 7.26347 11.4472C7.11531 11.6425 6.40977 11.973 6.20471 12.1796C5.99966 12.3862 5.72526 12.8894 5.84912 13.4839C5.86068 13.5381 5.87016 13.5828 5.87876 13.6191C5.95936 13.9213 6.17863 14.4691 6.12796 14.7207C6.0687 15.0184 5.30804 17.2337 7.00834 17.8241C7.36392 17.9474 7.51209 18.187 7.5512 18.5517C7.58615 18.8471 7.67019 19.1346 7.79982 19.402C7.9545 19.7295 8.25941 19.9082 8.2843 19.9302C8.38683 20.0195 8.86391 20.5215 8.90332 20.5944C9.50663 21.7147 9.33714 22.2744 10.4919 22.6552C10.7886 22.7537 11.0736 22.885 11.3415 23.0467C11.6681 23.2438 12.0177 23.3994 12.3824 23.51C12.3931 23.513 12.4091 23.5186 12.4281 23.5255C12.6847 22.9026 12.9449 22.312 13.2041 21.7558C11.1251 19.6143 11.6719 17.215 11.8707 16.5722C11.8765 16.553 11.887 16.5357 11.9013 16.5217C11.9155 16.5077 11.9331 16.4975 11.9523 16.4922C11.9715 16.4868 11.9917 16.4864 12.0111 16.4909C12.0305 16.4955 12.0485 16.5049 12.0633 16.5183C12.4995 16.9024 13.8258 18.2874 13.6703 20.7882C14.129 19.8677 14.5749 19.0585 14.9824 18.3672C13.4824 15.813 14.6001 13.5738 14.9527 12.9838C14.9629 12.9661 14.9773 12.9513 14.9947 12.9409C15.0121 12.9304 15.0319 12.9246 15.0522 12.924C15.0725 12.9235 15.0926 12.9282 15.1105 12.9376C15.1285 12.9471 15.1438 12.961 15.1548 12.9781C15.4606 13.4342 16.2918 14.9297 15.7771 17.084C16.1502 16.5112 16.453 16.0869 16.651 15.8207C17.1879 12.2594 19.8649 11.0897 20.5684 10.8431C20.5872 10.8362 20.6075 10.8343 20.6273 10.8374C20.6472 10.8405 20.6659 10.8486 20.6817 10.861C20.6976 10.8734 20.71 10.8896 20.7179 10.9081C20.7258 10.9267 20.7289 10.9469 20.7269 10.967C20.662 11.7033 20.2101 14.5396 17.1052 15.9958C16.7319 16.4897 16.3724 17.0095 16.0287 17.544C17.2161 16.6118 18.8796 16.1744 20.2626 16.51C20.2821 16.5144 20.3002 16.5237 20.3152 16.537C20.3303 16.5502 20.3418 16.567 20.3487 16.5859C20.3557 16.6048 20.3578 16.6251 20.355 16.645C20.3522 16.6649 20.3444 16.6838 20.3325 16.6999C19.9351 17.2287 18.3542 19.0117 15.3759 18.6032C14.8721 19.4556 14.4114 20.3196 14.0018 21.1455C15.2882 20.1681 17.1672 19.7935 18.6245 20.2857C18.6439 20.2919 18.6615 20.3029 18.6756 20.3178C18.6896 20.3326 18.6998 20.3508 18.7051 20.3706C18.7103 20.3903 18.7106 20.4112 18.7058 20.4311C18.701 20.451 18.6912 20.4694 18.6775 20.4845C18.2247 20.974 16.4815 22.5811 13.6151 21.9434C13.3464 22.5138 12.9458 23.4519 12.7502 23.9155C12.6829 24.0751 12.621 24.2361 12.5659 24.4002C12.439 24.7777 12.2681 25.2487 12.0645 25.7203C12.0358 25.7875 12.0211 25.86 12.0215 25.9332C12.0218 26.0064 12.0371 26.0787 12.0664 26.1457C12.0957 26.2127 12.1384 26.273 12.1919 26.3227C12.2453 26.3724 12.3084 26.4106 12.3771 26.4348C14.6389 27.2461 17.0946 27.3375 19.41 26.6968C19.4865 26.675 19.5572 26.6361 19.6166 26.5831C19.6761 26.53 19.7229 26.4642 19.7535 26.3904C19.8018 26.2755 19.8495 26.1665 19.8495 26.1665C19.8495 26.1665 20.8505 23.8321 20.9977 22.8148C21.0397 22.4942 21.1389 22.1837 21.2905 21.8984C21.3686 21.7559 21.4815 21.6356 21.6186 21.5491C21.7557 21.4625 21.9126 21.4124 22.0743 21.4036C22.8361 21.3631 24.4585 21.2562 25.0488 21.0684C25.8331 20.818 25.4932 19.3824 25.4509 19.2279C25.4085 19.0733 25.8284 18.7134 25.9146 18.5035C26.0008 18.2936 25.7024 18.2216 25.5807 17.9908C25.4589 17.7601 25.8832 17.5949 25.9437 17.3856C26.0041 17.1763 25.8056 16.9464 25.7253 16.7919C25.6716 16.6818 25.6341 16.5645 25.6138 16.4436C25.6138 16.4436 26.1878 16.0214 26.4927 15.7549C26.7977 15.4885 26.7411 15.2691 26.7402 15.2173Z"
        fill="black" />
</svg>