<svg xmlns="http://www.w3.org/2000/svg" width="32" height="32" viewBox="0 0 32 32" fill="none">
    <path
        d="M15.9936 0C7.16513 0 0 7.16513 0 15.9936C0 16.9532 0.0895642 17.8872 0.243103 18.7957H3.80008C4.2479 18.7957 4.52939 18.6421 4.69572 18.3607L5.94962 16.2879L7.54898 21.2395C7.70252 21.7385 8.07357 21.9944 8.57257 22.0072C9.08437 22.0072 9.5066 21.7001 9.60896 21.1883L10.7605 15.7377L12.0144 24.4382C12.0912 25.014 12.3727 25.2955 12.9484 25.2955C13.5242 25.2955 13.7929 24.9884 13.8824 24.4126L16.4542 7.48501C16.4542 7.44662 16.467 7.39544 16.467 7.35706C16.467 6.88365 16.1088 6.47421 15.6353 6.41024C15.597 6.41024 15.5458 6.39744 15.5074 6.39744C15.034 6.39744 14.6245 6.7557 14.5478 7.22911L12.9612 18.0792L11.8992 10.8373C11.8353 10.2871 11.413 9.94162 10.9396 9.92883C10.415 9.91603 10.0312 10.2487 9.92883 10.7989L8.39344 17.8872L7.17793 14.0872C7.07557 13.6777 6.73011 13.3707 6.30788 13.3195C5.7577 13.2555 5.43782 13.537 5.19472 13.9208L3.30108 16.902H2.17513C2.16234 16.6078 2.13675 16.3135 2.13675 16.0192C2.13675 8.38065 8.32947 2.18793 15.968 2.18793C22.1351 2.18793 27.3555 6.21831 29.1339 11.7841H31.3858C29.5306 5.0028 23.3251 0.0255898 15.968 0.0255898L15.9936 0Z"
        fill="url(#paint0_linear_2237_1911)" />
    <path
        d="M31.744 13.1912H28.1871C27.7392 13.1912 27.4578 13.3447 27.2914 13.6262L26.0375 15.699L24.4382 10.7474C24.2846 10.2484 23.9136 9.99249 23.4146 9.97969C22.9028 9.97969 22.4805 10.2868 22.3782 10.7986L21.2266 16.2492L19.96 7.54866C19.8832 6.97289 19.6017 6.69141 19.0259 6.69141C18.4502 6.69141 18.1815 6.99848 18.0919 7.57425L15.5201 24.5019C15.4434 25.0265 15.8144 25.5127 16.339 25.5894C16.3774 25.5894 16.4286 25.6022 16.4669 25.6022C16.9404 25.6022 17.3498 25.244 17.4266 24.7706L19.0131 13.9205L20.0751 21.1624C20.1391 21.7126 20.5613 22.0581 21.0219 22.0709C21.5465 22.0837 21.9304 21.751 22.0455 21.2008L23.5809 14.1124L24.7964 17.9125C24.8988 18.322 25.257 18.629 25.6665 18.6802C26.2167 18.7442 26.5365 18.4627 26.7668 18.0789L28.6605 15.0976H29.7992C29.8248 15.3919 29.8376 15.6862 29.8376 15.9805C29.8376 23.619 23.6449 29.8118 16.0063 29.8118C9.8392 29.8118 4.61889 25.7814 2.8404 20.2156H0.588501C2.44376 26.9969 8.64928 31.9741 16.0063 31.9741C24.8348 31.9741 31.9999 24.809 31.9999 15.9805C31.9999 15.0209 31.9104 14.0868 31.7568 13.1784L31.744 13.1912Z"
        fill="url(#paint1_linear_2237_1911)" />
    <defs>
        <linearGradient id="paint0_linear_2237_1911" x1="1.00199" y1="-1.00199" x2="32.9892"
            y2="30.9852" gradientUnits="userSpaceOnUse">
            <stop stop-color="#FC829F" />
            <stop offset="0.3412" stop-color="#FF1C53" />
            <stop offset="0.4392" stop-color="#EA49F8" />
            <stop offset="0.5294" stop-color="#B250FF" />
            <stop offset="0.6392" stop-color="#5E5FF5" />
            <stop offset="1" stop-color="#323CFF" />
        </linearGradient>
        <linearGradient id="paint1_linear_2237_1911" x1="-1.00206" y1="1.00168" x2="30.9852"
            y2="32.9889" gradientUnits="userSpaceOnUse">
            <stop stop-color="#FC829F" />
            <stop offset="0.3412" stop-color="#FF1C53" />
            <stop offset="0.4392" stop-color="#EA49F8" />
            <stop offset="0.5294" stop-color="#B250FF" />
            <stop offset="0.6392" stop-color="#5E5FF5" />
            <stop offset="1" stop-color="#323CFF" />
        </linearGradient>
    </defs>
</svg>