<svg width="829" height="829" viewBox="0 0 829 829" fill="none" xmlns="http://www.w3.org/2000/svg">
    <path
        d="M743.819 0H85.1812C38.1369 0 0 38.1369 0 85.1812V743.819C0 790.863 38.1369 829 85.1812 829H743.819C790.863 829 829 790.863 829 743.819V85.1812C829 38.1369 790.863 0 743.819 0Z"
        fill="black" />
    <path fill-rule="evenodd" clip-rule="evenodd"
        d="M250.967 365.039L414.09 459.472V648.336L250.967 742.768L87.8435 648.336V459.472L250.967 365.039Z"
        stroke="#03D498" stroke-width="14.6476" />
    <path fill-rule="evenodd" clip-rule="evenodd"
        d="M577.195 365.039L740.318 459.472V648.336L577.195 742.768L414.07 648.336V459.472L577.195 365.039Z"
        stroke="#03D498" stroke-width="14.6476" />
    <path d="M414.058 645.739V456.875" stroke="#03D498" stroke-width="14.6476" />
    <path fill-rule="evenodd" clip-rule="evenodd"
        d="M414.2 81.6484L577.323 176.08V364.944L414.2 459.376L251.076 364.944V176.08L414.2 81.6484Z" stroke="#03D498"
        stroke-width="14.6476" />
    <path d="M577.371 365.039L414.248 459.472L251.123 365.039" stroke="#03D498" stroke-width="14.6476" />
    <path fill-rule="evenodd" clip-rule="evenodd"
        d="M414.2 270.734L577.323 365.166V554.03L414.2 648.462L251.075 554.03V365.166L414.2 270.734Z" stroke="white"
        stroke-width="14.6476" stroke-linecap="round" />
    <path
        d="M414.541 499.677C440.457 499.677 461.466 478.668 461.466 452.752C461.466 426.837 440.457 405.828 414.541 405.828C388.625 405.828 367.617 426.837 367.617 452.752C367.617 478.668 388.625 499.677 414.541 499.677Z"
        fill="#03D498" />
</svg>